<svg t="1683947007609" class="icon" viewBox="0 0 1024 1024" version="1.1" xmlns="http://www.w3.org/2000/svg" p-id="6287" width="16" height="16"><path d="M1020 512C1020 231.6 792.4 4 512 4S4 231.6 4 512c0 48 6.8 94.4 19.2 138.4h977.6c12.4-44 19.2-90.4 19.2-138.4z" fill="#486471" p-id="6288"></path><path d="M23.2 650.4C83.6 863.6 279.6 1020 512 1020s428.4-156.4 488.8-369.6H23.2z" fill="#36505F" p-id="6289"></path><path d="M215.6 731.2a286.4 75.6 0 1 0 572.8 0 286.4 75.6 0 1 0-572.8 0Z" fill="#E7E8E9" p-id="6290"></path><path d="M346 731.2a156 41.2 0 1 0 312 0 156 41.2 0 1 0-312 0Z" fill="#BBC2C6" p-id="6291"></path><path d="M402.8 736a99.2 26 0 1 0 198.4 0 99.2 26 0 1 0-198.4 0Z" fill="#BBC2C6" p-id="6292"></path><path d="M472.8 418.4s0.8-0.8 2-2.4c1.2-1.6 2.8-4 4.4-7.2 3.2-6.4 6.4-15.6 6.8-26.8 0.4-10.8-2.4-23.6-9.6-32.8-3.6-5.2-8.8-10.4-14.4-16.8-5.6-6-12.4-13.2-17.6-22.8-2.8-4.8-4.8-10.4-6-16.4-0.4-3.2-0.8-6-0.8-8.8 0-4 0.4-6.4 0.8-9.2 2-11.6 6.8-20.8 12.4-28.4 5.2-7.6 10.8-13.6 15.6-18.4 4.8-5.2 8.8-9.6 12-14 6.4-8.8 10.4-18.4 12.8-25.2 2-6.8 3.2-11.2 3.2-11.2l3.2-0.4s2 4 3.6 12 2 20-2.4 34.4c-2 6.8-5.6 14-9.6 20.8-4 6.8-8 12.8-11.2 18.8-3.2 6-5.2 12-6 16.8 0 1.2-0.4 2.8 0 3.2 0 1.6 0.4 2.4 0.4 3.6 0.4 2.4 1.2 4.8 2.4 7.2 2.4 5.2 7.2 11.2 12.4 18 5.2 6.4 10.8 14 15.2 22.4 4.4 9.2 6.8 18.4 7.2 27.2 0.4 8.8-1.2 16.8-3.6 24-2.4 7.2-5.6 12.8-8.8 17.6-3.2 4.8-7.2 8-10 10.8-3.2 2.4-6 4.4-8 5.2-2 0.8-2.8 1.2-2.8 1.2l-3.6-2.4zM539.2 397.2s2.4-3.2 4-7.6c2-4.8 4-12 4-20.4 0-8-2.8-16.8-8-23.2-2.8-3.6-6.8-7.2-11.2-12-4.4-4.8-9.6-10.4-14-18.4-2-4-4-8.8-4.8-13.6-0.4-2.4-0.8-5.2-0.8-7.2 0-3.2 0.4-5.2 0.8-8 1.6-9.6 5.6-17.2 10-23.2s8.8-10.4 12.4-14c3.6-4 6.8-6.8 9.6-10 5.2-6 8.8-13.2 10.8-18 2-5.2 3.2-8.4 3.2-8.4l3.2-0.4s2 3.2 3.6 9.2c1.6 6.4 2.4 15.6-0.8 27.2-1.2 5.6-4.4 11.6-7.2 16.8-2.8 5.2-5.6 10-8 14.4-2 4.4-3.6 8.4-4 11.6v1.6c0 1.2 0 1.6 0.4 2.4 0.4 1.2 0.8 2.8 1.6 4.4 1.6 3.6 4.8 8 8.8 13.2 3.6 4.8 8.4 11.2 11.6 18 3.6 7.6 5.2 15.2 5.6 22.4 0 7.2-1.2 13.6-3.2 19.2s-4.8 10-7.6 13.6c-2.8 3.6-6 6.4-8.4 8.4-2.8 2-5.2 3.2-6.4 3.6-1.6 0.8-2.4 0.8-2.4 0.8l-2.8-2.4zM639.6 693.2l-4.4-24.8c91.6-16.8 136-69.6 147.2-113.2 2.8-11.6 1.2-22.8-4.4-31.2-5.6-8-14.4-12.8-26-14-0.4 0-27.6-2-48.4 16l-16.4-18.8c28.8-25.2 65.6-22 67.2-22 18.4 1.6 34 10.4 44 24.4 10 14.4 13.2 32.8 8.4 52-13.6 50.8-64 112.4-167.2 131.6z" fill="#E7E8E9" p-id="6293"></path><path d="M300 458.4c-3.6 18-5.6 36.4-5.6 55.6 0 132 92.8 238.8 207.6 238.8 114.4 0 207.6-106.8 207.6-238.8 0-19.2-2-37.6-5.6-55.6H300z" fill="#F7F8F9" p-id="6294"></path><path d="M326 488.8h72.4s-28.8 145.6 87.2 232.8c-0.4 0.4-151.2-17.2-159.6-232.8z" fill="#E7E8E9" p-id="6295"></path></svg>